<svg xmlns="http://www.w3.org/2000/svg" viewBox="0 0 293.03 183.51"><defs><style>.cls-1{fill:#353535;}.cls-2{fill:#f36d6d;}</style></defs><g id="Layer_2" data-name="Layer 2"><g id="Layer_1-2" data-name="Layer 1"><path class="cls-1" d="M71.54,126.12q-2.36.84-8.42,2.82T49,133.28q-8.07,2.37-16.61,4.42a159.4,159.4,0,0,1-15.85,3.05A41.41,41.41,0,0,1,4.61,141Q0,140.22,0,136.79q0-5.49,4.84-12.92a114.47,114.47,0,0,1,11.81-15q7-7.59,13.71-13.87t10.93-9.79q3.89-3.43,12.46-10t18.82-13a80.44,80.44,0,0,1,19.12-9.07q8.88-2.66,13.38,1.75,3.34,4.27,1.75,12.5A83.26,83.26,0,0,1,101,85.17q-4.26,9.56-8.8,17.75T85.1,115.15a12.23,12.23,0,0,1-.91,1.45c-.51.61-.72,1-.65,1.14s.7.05,1.87-.3q25.14-8.09,50.66-15.17a22.49,22.49,0,0,0,3.05-1,4.25,4.25,0,0,0,1.56-1.06,13.46,13.46,0,0,0,1.34-2c.25-.45.61-1,1.06-1.75l11.43-17.83q4.19-6.47,8.38-13c.16-.2.28-.38.38-.53s.27-.44.35-.57a.77.77,0,0,0,.11-.27.61.61,0,0,0-.07-.23.49.49,0,0,1-.12-.26c0-.13-.06-.32-.11-.57A2.82,2.82,0,0,1,164.57,61a7,7,0,0,1,2.7-1.56,2.71,2.71,0,0,1,2.4.15,2,2,0,0,1,.38,1.94,8.48,8.48,0,0,1-1,2.36,16.3,16.3,0,0,1-1.18,1.72q-1.9,3-3.89,5.94-8.53,13-17,25.9a9.3,9.3,0,0,1-.84,1.22c-.46.56-.63.91-.53,1s.66.07,1.67-.19a58.56,58.56,0,0,1,7.32-1.64,13.69,13.69,0,0,1,7.24.42,4.53,4.53,0,0,1,1.29.92,1.82,1.82,0,0,1,.54,1.52c-.11.46-.3.72-.58.8a1.27,1.27,0,0,1-.87-.08,5.14,5.14,0,0,1-.92-.49,6.45,6.45,0,0,0-3.58-.38,39.76,39.76,0,0,0-5.22.84c-1.8.4-3.29.78-4.45,1.14a8.47,8.47,0,0,0-.84.15l-1.37.38a17.8,17.8,0,0,0-2,.57,3.13,3.13,0,0,0-1.26,1,21.16,21.16,0,0,0-1.49,2.13,417.52,417.52,0,0,0-27.2,47.54c-.15.36-.28.64-.38.84s-.18.34-.23.42a.41.41,0,0,0-.07.23.26.26,0,0,0,.07.19,7.83,7.83,0,0,1,.31.84,2.07,2.07,0,0,1-.69,1.94,2.35,2.35,0,0,1-1.86.61,1.65,1.65,0,0,1-1.41-1.34,7.39,7.39,0,0,1,.61-5.71q12.1-23.31,26.36-45.48c.45-.72.54-1.1.26-1.15a3.8,3.8,0,0,0-1.56.31,4.2,4.2,0,0,0-.68.23Q115.27,112,96.68,118.12l-11.5,3.74a16.46,16.46,0,0,1-1.6.45,22.29,22.29,0,0,0-2.59.92,3.65,3.65,0,0,0-1.37,1,16.35,16.35,0,0,0-1.37,2.1c-.31.51-.69,1.12-1.15,1.83-1,1.62-3.1,5-6.24,10.06s-6.58,10.69-10.29,16.83-6.91,11.58-9.6,16.31-4.11,7.51-4.27,8.38a2,2,0,0,1,0,2.25,3.61,3.61,0,0,1-1.82,1.33,2,2,0,0,1-1.83-.08q-1.53-1.66,2.17-9.56t9.64-17.9q5.94-10,11.12-18.13t6.7-10.33a4.15,4.15,0,0,1,.39-.61c.55-.76.81-1.19.76-1.29s-.49,0-1.3.3Zm22.25-35.2q10-20.57,9.14-28.26t-9.22-5.83q-8.38,1.86-20.95,10.09a267.9,267.9,0,0,0-26,19.58q-13.41,11.35-24.3,22.59T6.59,128.22q-5,7.88-.8,9.18,6,1,19.28-2.1t26.7-7.2q13.45-4.11,20.15-6.4c.87-.25,1.6-.48,2.21-.68a25.66,25.66,0,0,0,2.44-.88,3.24,3.24,0,0,0,1.26-1c.33-.43.77-1.1,1.33-2,.36-.61.81-1.42,1.37-2.44Q87.7,103.11,93.79,90.92Z"/><path class="cls-1" d="M181.41,133.51q2.06-1.06,2.43-.15c.26.61-.22,1.35-1.44,2.21A42.1,42.1,0,0,1,175,139a15.76,15.76,0,0,1-8.12,1c-2.38-.43-3.63-2.35-3.73-5.75v-.38q.07-1.06-.15-1.11a3.44,3.44,0,0,0-1.3.65q-11.8,7.69-17.33,9.6t-6.51.15q-1.23-2.43,3-7.58a54.25,54.25,0,0,1,11-9.79,31.63,31.63,0,0,1,12.92-5.6c4.11-.63,7,1,8.68,4.92a1.43,1.43,0,0,1-.23,1.37,2.31,2.31,0,0,1-1.21.83,2.15,2.15,0,0,1-1.72-.3,3.13,3.13,0,0,1-1.33-1.29.67.67,0,0,1,.07-.31l.16-.3.15-.31a.32.32,0,0,0,0-.3c-1.27-1.73-3.46-2-6.55-.77A42.78,42.78,0,0,0,153,129.4a90.56,90.56,0,0,0-8.76,7.35q-3.58,3.47-3.36,4.23c.21.51,2.21-.33,6-2.52s10.06-6.27,18.75-12.26a2.12,2.12,0,0,1,1.4-.27,1.72,1.72,0,0,1,1.19.8,1.82,1.82,0,0,1,.07,1.83q-2.9,6.25-.65,7.69t6.48.23A32.63,32.63,0,0,0,181.41,133.51Z"/><path class="cls-1" d="M177.37,144.86a5.36,5.36,0,0,0,1.45-2.13q.84-1.75,1.9-4.27a82.08,82.08,0,0,1,4.65-9.82c1.78-3.2,3.78-5,6-5.41a2.45,2.45,0,0,1,1.6,1c.35.54.25,1.16-.31,1.87a30.72,30.72,0,0,1-2.25,2.78c-.63.69-1.28,1.36-1.94,2s-1.47,1.5-2.44,2.52c-.66,1.67-1.29,3.35-1.9,5-.26.82-.53,1.6-.84,2.37A10.75,10.75,0,0,0,183,142c0,.23.05.34.23.34a2.54,2.54,0,0,0,.73-.15.22.22,0,0,1,.15-.08c1-.3,1.73-.29,2.13,0a1.08,1.08,0,0,1,.38,1.26,2.29,2.29,0,0,1-1.14,1.29,4.4,4.4,0,0,1-1.68.54,4.17,4.17,0,0,0-3,1.9,16.79,16.79,0,0,0-.91,1.45A38.18,38.18,0,0,1,171.73,159a22.85,22.85,0,0,1-12.65,5.86q-5.72.54-5.56-1.44c.1-1.33,1.44-3.12,4-5.38a83.17,83.17,0,0,1,9.33-7Q172.34,147.52,177.37,144.86Zm-3.89,7.24c.26-.3.54-.64.84-1a9.13,9.13,0,0,0,.76-1.1,1.82,1.82,0,0,0,.31-.8c0-.18-.16-.22-.46-.12a33.29,33.29,0,0,0-4.61,2.79c-1.95,1.34-3.95,2.79-6,4.34s-3.67,2.88-4.91,4-1.72,1.7-1.41,1.75c1.67.1,4.09-.83,7.23-2.78A34.75,34.75,0,0,0,173.48,152.1Z"/><path class="cls-1" d="M196.26,144.86a5.36,5.36,0,0,0,1.45-2.13q.84-1.75,1.91-4.27a83.58,83.58,0,0,1,4.64-9.82c1.78-3.2,3.79-5,6-5.41a2.43,2.43,0,0,1,1.6,1c.36.54.26,1.16-.3,1.87a34.62,34.62,0,0,1-2.25,2.78c-.64.69-1.28,1.36-1.94,2s-1.48,1.5-2.44,2.52c-.66,1.67-1.3,3.35-1.91,5-.25.82-.53,1.6-.83,2.37a7.41,7.41,0,0,0-.27,1.18c0,.23.05.34.23.34a2.42,2.42,0,0,0,.72-.15.22.22,0,0,1,.15-.08c1-.3,1.73-.29,2.14,0a1.11,1.11,0,0,1,.38,1.26,2.29,2.29,0,0,1-1.14,1.29,4.4,4.4,0,0,1-1.68.54,4.65,4.65,0,0,0-1.91.76,4.56,4.56,0,0,0-1.06,1.14,17,17,0,0,0-.92,1.45A38.33,38.33,0,0,1,190.63,159,22.88,22.88,0,0,1,178,164.9q-5.72.54-5.56-1.44t4-5.38a81.37,81.37,0,0,1,9.33-7Q191.24,147.52,196.26,144.86Zm-3.88,7.24.84-1A9.13,9.13,0,0,0,194,150a1.9,1.9,0,0,0,.3-.8q0-.27-.45-.12a32.71,32.71,0,0,0-4.61,2.79q-2.94,2-6,4.34c-2,1.55-3.67,2.88-4.92,4s-1.71,1.7-1.41,1.75q2.52.15,7.24-2.78A35,35,0,0,0,192.38,152.1Z"/><path class="cls-1" d="M257.82,133.51c1.38-.71,2.19-.76,2.44-.15s-.23,1.35-1.44,2.21a42.44,42.44,0,0,1-7.43,3.39,15.77,15.77,0,0,1-8.12,1q-3.59-.64-3.73-5.75v-.38q.08-1.06-.15-1.11a3.37,3.37,0,0,0-1.3.65q-11.81,7.69-17.33,9.6t-6.52.15q-1.22-2.43,3-7.58a54.25,54.25,0,0,1,11-9.79,31.63,31.63,0,0,1,12.92-5.6c4.11-.63,7,1,8.68,4.92a1.46,1.46,0,0,1-.23,1.37,2.29,2.29,0,0,1-1.22.83,2.13,2.13,0,0,1-1.71-.3,3.07,3.07,0,0,1-1.33-1.29.67.67,0,0,1,.07-.31l.15-.3c.05-.11.11-.21.16-.31a.32.32,0,0,0,0-.3q-1.9-2.6-6.56-.77a42.94,42.94,0,0,0-9.82,5.72,92,92,0,0,0-8.77,7.35q-3.57,3.47-3.35,4.23c.21.51,2.21-.33,6-2.52s10.06-6.27,18.74-12.26a2.16,2.16,0,0,1,1.41-.27,1.69,1.69,0,0,1,1.18.8,1.82,1.82,0,0,1,.08,1.83q-2.9,6.25-.65,7.69t6.48.23A32.54,32.54,0,0,0,257.82,133.51Z"/><path class="cls-1" d="M252.19,144.33a75.71,75.71,0,0,1,4.61-9.07q3.07-5.32,6-10.2c1.06-1.73,2-3.23,2.74-4.5a2.11,2.11,0,0,1-.46-1.3,1.78,1.78,0,0,1,.46-1.21,8.23,8.23,0,0,1,2.9-2.37l.15-.07a1.71,1.71,0,0,1,1.22,0,2,2,0,0,1,1.44,1.45v.38a2.76,2.76,0,0,1-.38,1.37q-2.82,4.57-6.28,10.4t-6.14,10.55q1.83-1.75,5.91-5.07t8.15-6.17c2.72-1.9,4.66-2.91,5.83-3,1.83,0,2.87.78,3.12,2.17a14.16,14.16,0,0,1,0,4.69,15.14,15.14,0,0,0-.07,3.39,1.41,1.41,0,0,0,1.56,1.41q1.41,0,4.84-2.29,1-.6,1.41-.3c.28.2.36.54.26,1a1.86,1.86,0,0,1-.84,1.18q-6.86,4.34-9.06,1.64t-1.14-9.26q-1.61.15-4.8,2.7c-2.14,1.71-4.45,3.67-6.94,5.91q-3.27,2.9-6.24,5.33a31,31,0,0,1-5,3.51,2.64,2.64,0,0,1-2.59,0A1.83,1.83,0,0,1,252.19,144.33Z"/><path class="cls-1" d="M290,150.73a1.76,1.76,0,0,1-1.87-.42,3,3,0,0,1-.72-1.83,4.34,4.34,0,0,1,.3-2,2.47,2.47,0,0,1,2.55-1.41,3.36,3.36,0,0,1,2.55,1.64,2,2,0,0,1,.16,1.53,2.26,2.26,0,0,1-.92,1.22,5.52,5.52,0,0,0-1.14.76C290.48,150.45,290.18,150.63,290,150.73Z"/><path class="cls-2" d="M79.64,111.16q-18.37-2.07-27.45-8.57t-6.8-16.88q2.27-10.38,17.79-24.06,5.63-4.84,15.88-12.14A242.67,242.67,0,0,1,101.51,35.4a116.94,116.94,0,0,1,23.63-10.19q11.46-3.37,19.45-.46,6,2.63,6.65,8.19a26.41,26.41,0,0,1-1.76,12.18,77.72,77.72,0,0,1-5.85,12.46q-3.42,5.84-5.72,9.07-3.39,5.07-10.61,15.07Q118.84,93.63,108.89,108T91.4,134.49Q83.86,146.67,82.63,152a3.79,3.79,0,0,0,.39,2,3.42,3.42,0,0,1,.27,1,1.18,1.18,0,0,1-.5,1,1.53,1.53,0,0,1-1.92,0,3.48,3.48,0,0,1-1.08-2,7,7,0,0,1-.08-2.73Q81,145.51,89.25,132T108,102.93q10.5-15.53,18.8-27.36,5.07-7.3,7.76-11.23,1.54-2.22,4.54-7.22a96.16,96.16,0,0,0,5.57-10.88,28.15,28.15,0,0,0,2.65-10.76,6.86,6.86,0,0,0-4.22-6.88q-7.16-2.61-18.15.92A123,123,0,0,0,102,39.82a257.84,257.84,0,0,0-21.84,13.8q-9.92,7-15,11.42-10.29,9-13.8,15.64T49.19,91.94a13.49,13.49,0,0,0,5.39,7.5,31.5,31.5,0,0,0,8.87,4.38,42.41,42.41,0,0,0,8.42,1.84c2.41.23,3.72.22,3.92,0a1.9,1.9,0,0,1,1.08-1.15,2.23,2.23,0,0,1,1.61,0q3.15,1.31,3.92,2.46a2.52,2.52,0,0,1,.16,3A3.18,3.18,0,0,1,79.64,111.16Z"/><path class="cls-2" d="M142.29,18.45c-1.23.15-2,.23-2.31.23a6.37,6.37,0,0,1-5-2.31A9.32,9.32,0,0,1,133,10a11.09,11.09,0,0,1,2.23-7.3A6.37,6.37,0,0,1,140.13,0a6.74,6.74,0,0,1,5.27,2.88C147,4.8,147.75,7.51,147.75,11q0,11.15-8,22.45-4.08,5.84-5.53,5.84c-.52-.31-.77-.59-.77-.84s.71-1.34,2.15-3.08a28.76,28.76,0,0,0,5-8.11A29,29,0,0,0,142.29,18.45Z"/><path class="cls-2" d="M181.19,113.08c.4,0,1.16-.45,2.26-1.5s2.4-2.37,3.88-4q3.69-4,7.65-7.53t6.65-3.61a3.1,3.1,0,0,1,2.89,2.88,22.86,22.86,0,0,1,0,5.5,25.86,25.86,0,0,0-.19,3.49,3.27,3.27,0,0,0,.73,2.27q1.31,1.3,10-3.84a2.19,2.19,0,0,1,1.73-.39.75.75,0,0,1,.53.93c-.07.46-.55.94-1.42,1.46a43.11,43.11,0,0,1-8.76,4.49q-3.07,1-4.77-.57c-1.89-1.85-2.59-5.1-2.07-9.77,0-1.07-.07-1.6-.35-1.57a5.23,5.23,0,0,0-1.81,1.19,1.2,1.2,0,0,1-.3.23q-2.31,1.92-5.23,4.77a89.67,89.67,0,0,1-7,6.18q-3.35,2.65-5.34,2a4.45,4.45,0,0,1-2.77-4.38,20.91,20.91,0,0,1,1.19-7q1.28-3.81,2.58-6.81c.41-1,.74-1.87,1-2.53q.54-1.92-1.85-.47a58.31,58.31,0,0,0-6.22,4.66q-3.86,3.18-7.65,6.61l-6.11,5.49a16.7,16.7,0,0,0-1.62,1.54l-1.15.92c-1,.93-2.2,2-3.69,3.27a38.94,38.94,0,0,1-4.31,3.19c-1.38.87-2.43,1.18-3.15.92-1.54-.82-1.71-2.43-.54-4.84a116.55,116.55,0,0,1,10.61-17.53q3.08-4.38,5.92-8.84a.62.62,0,0,0,.08-.23s0-.13-.16-.23l-.07-.08a1.16,1.16,0,0,1-.39-1.15,3.38,3.38,0,0,1,.77-1.31,11.14,11.14,0,0,1,1.42-1.07,6.9,6.9,0,0,1,2.12-1,1.25,1.25,0,0,1,1.54.5c.3.51.18,1.59-.39,3.22a202.11,202.11,0,0,1-10.84,17.22q-1.38,2.09-2.69,4.08c-1.23,1.84-1.69,2.72-1.38,2.61a13.09,13.09,0,0,0,2.46-1.92l1.07-.92q5.16-4.55,10.81-9.19a104.69,104.69,0,0,1,10.33-7.61q4.69-3,7-2.34,3.15,1.45,1.15,7.38c-.1.25-.28.72-.53,1.38-.47,1.38-1.07,3.13-1.81,5.23s-1.33,4-1.77,5.72S180.83,112.93,181.19,113.08Z"/></g></g></svg>