<svg xmlns="http://www.w3.org/2000/svg" xmlns:xlink="http://www.w3.org/1999/xlink" viewBox="0 0 220.81 196.84"><defs><style>.cls-1{fill:none;}.cls-2{fill:#58595b;}.cls-3{fill:url(#radial-gradient);}.cls-4,.cls-6{fill:#ef4136;}.cls-5{fill:url(#radial-gradient-2);}.cls-6{font-size:9.71px;font-family:Poppins-ExtraLight, Poppins;font-weight:200;letter-spacing:0.66em;}</style><radialGradient id="radial-gradient" cx="102.33" cy="104.28" r="0.11" gradientTransform="translate(2.32) scale(0.99 1)" gradientUnits="userSpaceOnUse"><stop offset="0" stop-color="#f69380"/><stop offset="1" stop-color="#ef4137"/></radialGradient><radialGradient id="radial-gradient-2" cx="102.4" cy="104.42" r="0" xlink:href="#radial-gradient"/></defs><g id="Layer_2" data-name="Layer 2"><g id="Layer_1-2" data-name="Layer 1"><path class="cls-1" d="M90.57,148a353.42,353.42,0,0,0-35.09,18.7,54.77,54.77,0,0,0-11.89,9.23l-.12.24A13.73,13.73,0,0,0,41.94,178a3.74,3.74,0,0,0-.71,2.19c.16.79.87,1.5,2.12,2.13q4.49,2.13,14.72,2.25a103.43,103.43,0,0,0,41.45-8.87,78.2,78.2,0,0,0,28.61-20.25q6.83-7.69,7.06-14-.21-4.19-5.76-8.19h-9.16l0,0Q105.53,140.74,90.57,148Z"/><path class="cls-2" d="M75.67,107.26v1.58H63.51V91.54H75.3v1.59h-10v6.15h8.89v1.55H65.33v6.43Z"/><path class="cls-2" d="M126.6,93.13h-6V91.54h13.91v1.59h-6v15.71H126.6Z"/><path class="cls-2" d="M150.64,91.54h1.82v17.3h-1.82Z"/><path class="cls-2" d="M185.44,91.54l-7.62,17.3H176l-7.63-17.3h2l6.59,15,6.64-15Z"/><path class="cls-2" d="M213.36,107.26v1.58H201.19V91.54H213v1.59H203v6.15h8.9v1.55H203v6.43Z"/><polygon class="cls-3" points="104.05 104.15 104.18 104.42 104.06 104.15 104.05 104.15"/><polygon class="cls-4" points="95.34 102.17 95.34 102.17 99.22 93.45 103.35 102.74 103.33 102.74 104.01 104.22 104.01 104.22 104.14 104.5 104.14 104.5 104.14 104.5 106.08 108.84 107.99 108.84 100.13 91.54 98.33 91.54 90.47 108.84 92.36 108.84 94.3 104.5 94.3 104.5 95.34 102.17"/><polygon class="cls-5" points="104.18 104.42 104.18 104.42 104.18 104.42 104.18 104.42"/><path class="cls-2" d="M44.22,108.84l-3.94-5.56a12.19,12.19,0,0,1-1.37.07H34.29v5.49H32.47V91.54h6.44a7.73,7.73,0,0,1,5.16,1.59,5.39,5.39,0,0,1,1.87,4.34A5.35,5.35,0,0,1,42,102.91l4.21,5.93Zm-1.45-8.18a4.48,4.48,0,0,0,0-6.41,6,6,0,0,0-3.91-1.12H34.29v8.67h4.57A5.94,5.94,0,0,0,42.77,100.66Z"/><path class="cls-2" d="M4.39,107.85a8.33,8.33,0,0,1-3.22-3.15,9.28,9.28,0,0,1,0-9A8.29,8.29,0,0,1,4.4,92.53,9.41,9.41,0,0,1,9,91.4a9.48,9.48,0,0,1,3.54.64,7.26,7.26,0,0,1,2.75,1.88l-1.15,1.16a6.84,6.84,0,0,0-5.09-2A7.39,7.39,0,0,0,5.36,94a6.74,6.74,0,0,0-2.62,2.57,7.58,7.58,0,0,0,0,7.31,6.81,6.81,0,0,0,2.62,2.57,7.39,7.39,0,0,0,3.71.94,6.74,6.74,0,0,0,5.09-2.08l1.15,1.16a7.24,7.24,0,0,1-2.76,1.89A9.38,9.38,0,0,1,9,109,9.32,9.32,0,0,1,4.39,107.85Z"/><text class="cls-6" transform="translate(1.13 122.58) scale(0.99 1)">Just Plan &amp; Execute!</text><path class="cls-4" d="M179.44,82.78h8.27c1.13-.78,2.26-1.56,3.39-2.37h-7.87C182,81.21,180.71,82,179.44,82.78Z"/><path class="cls-4" d="M85.15,76.94q.24-7.81,7.18-18.82a110.26,110.26,0,0,1,13.43-17.28,119.23,119.23,0,0,1,32.37-25q9.78-5.08,16.13-5.09,9.19,0,9.19,6.75a23.26,23.26,0,0,1-1.77,9.23,71.7,71.7,0,0,1-9.77,16.81Q142.25,56.1,123.65,74l-.94.83c-1.65,1.42-2.47,2.56-2.47,3.43a2.31,2.31,0,0,0,1.53,2.37,2,2,0,0,0,.94.23,3.83,3.83,0,0,0,2.71-1.65l4.47-4A217.72,217.72,0,0,0,158.39,44,79.31,79.31,0,0,0,169,26.4a26.82,26.82,0,0,0,2.12-10.18,15.49,15.49,0,0,0-2-7.7q-4.83-7.45-10.71-8T149.91,0a51.24,51.24,0,0,0-11.78,1.3,90.36,90.36,0,0,0-36.91,17.88,114.29,114.29,0,0,0-26.9,31q-8.71,14.33-8.71,27a37.7,37.7,0,0,0,.48,5.87H86.52A16.09,16.09,0,0,1,85.15,76.94Z"/><path class="cls-4" d="M135.19,141.45q-.24,6.27-7.06,14a78.2,78.2,0,0,1-28.61,20.25,103.43,103.43,0,0,1-41.45,8.87q-10.24-.12-14.72-2.25c-1.25-.63-2-1.34-2.12-2.13a3.74,3.74,0,0,1,.71-2.19,13.73,13.73,0,0,1,1.53-1.83l.12-.24a54.77,54.77,0,0,1,11.89-9.23A353.42,353.42,0,0,1,90.57,148q14.94-7.22,29.67-14.68l0,0H108.64c-5,2.33-11.58,5.36-20,9.13q-18.12,8.18-35.91,17.05a62.19,62.19,0,0,0-15.66,10.18q-5.64,5.44-5.65,11.24A11.07,11.07,0,0,0,36.29,190a24.33,24.33,0,0,0,6.83,3.79,68.17,68.17,0,0,0,20.13,3.07,103.89,103.89,0,0,0,30.5-4.61,103.77,103.77,0,0,0,35.79-17.4,72.91,72.91,0,0,0,14.83-14.68,33.1,33.1,0,0,0,7.42-17.76v-.94a26.4,26.4,0,0,0-1.24-8.19H129.43Q135,137.27,135.19,141.45Z"/><path class="cls-4" d="M211,63.75a2.34,2.34,0,0,0-1.18-1.89l-.94-.36c-.24,0-.79.44-1.65,1.3a242.37,242.37,0,0,1-24,17.61h7.87q8.68-6.25,17.61-13.94C209.1,66.08,211,64.3,211,63.75Z"/><ellipse class="cls-4" cx="215.66" cy="56.76" rx="4.72" ry="4.74"/></g></g></svg>